<?xml version="1.0" standalone="no"?>
<!DOCTYPE svg PUBLIC "-//W3C//DTD SVG 20010904//EN"
 "http://www.w3.org/TR/2001/REC-SVG-20010904/DTD/svg10.dtd">
<svg version="1.0" xmlns="http://www.w3.org/2000/svg"
 width="1624.000000pt" height="1624.000000pt" viewBox="0 0 1624.000000 1624.000000"
 preserveAspectRatio="xMidYMid meet">
<metadata>
Created by potrace 1.11, written by Peter Selinger 2001-2013
</metadata>
<g transform="translate(0.000000,1624.000000) scale(0.100000,-0.100000)"
fill="#000000" stroke="none">
<path d="M7195 15156 c-66 -16 -110 -40 -167 -90 -51 -45 -138 -162 -138 -186
0 -9 -4 -20 -8 -25 -19 -23 -52 -126 -62 -190 -5 -38 -10 -107 -10 -151 0 -58
-4 -85 -14 -93 -8 -7 -17 -23 -20 -36 -4 -16 -16 -25 -38 -30 -18 -4 -37 -11
-43 -15 -20 -16 -122 -39 -200 -46 -44 -3 -89 -8 -100 -10 -95 -18 -149 -26
-202 -31 l-61 -5 8 -29 c9 -29 75 -165 90 -184 5 -5 41 -71 80 -145 80 -148
140 -283 232 -520 33 -85 77 -191 98 -235 20 -44 41 -91 45 -105 13 -44 134
-290 186 -377 100 -170 222 -338 313 -433 l92 -96 108 51 107 52 13 -32 c8
-18 17 -43 21 -56 4 -13 25 -46 46 -73 32 -40 39 -56 39 -94 0 -42 -4 -50 -50
-93 -62 -59 -131 -79 -208 -61 -26 5 -48 9 -50 8 -1 -2 2 -16 8 -32 12 -30 10
-52 -16 -174 -61 -279 -228 -755 -274 -780 -23 -12 -47 15 -61 66 -6 22 -16
46 -23 54 -21 25 -200 368 -244 467 -50 111 -132 314 -132 326 0 8 -90 225
-125 302 -8 17 -32 80 -53 140 -41 115 -86 231 -182 475 -73 184 -280 812
-280 848 0 15 -81 260 -128 387 -16 44 -32 97 -36 118 l-7 39 -42 -7 c-23 -4
-60 -20 -82 -35 -22 -15 -65 -35 -96 -43 -30 -9 -75 -30 -100 -47 -24 -16 -53
-30 -64 -30 -29 -1 -97 -34 -119 -59 -11 -11 -29 -21 -40 -21 -30 -1 -102 -35
-113 -55 -5 -9 -29 -21 -54 -26 -24 -6 -64 -26 -89 -45 -24 -19 -56 -37 -70
-41 -25 -6 -72 -35 -98 -60 -7 -7 -25 -16 -40 -19 -15 -4 -43 -18 -62 -33 -19
-14 -51 -33 -72 -43 -20 -9 -51 -30 -68 -47 -18 -17 -41 -33 -52 -37 -29 -9
-164 -102 -198 -136 -16 -15 -35 -28 -42 -28 -8 0 -27 -13 -44 -29 -16 -15
-42 -35 -59 -44 -16 -9 -46 -30 -65 -46 -19 -17 -61 -52 -94 -78 -32 -27 -75
-65 -96 -85 -20 -21 -41 -38 -46 -38 -14 -1 -49 -33 -57 -52 -3 -10 -13 -18
-21 -18 -8 0 -32 -17 -53 -37 -22 -21 -69 -66 -106 -100 -37 -35 -67 -67 -67
-72 0 -5 -9 -7 -21 -4 -16 5 -45 -19 -141 -118 -66 -68 -143 -151 -171 -184
-29 -33 -76 -85 -104 -116 -29 -31 -53 -59 -53 -64 0 -4 -18 -29 -41 -54 -22
-25 -44 -50 -48 -56 -17 -23 -104 -132 -120 -150 -10 -11 -22 -31 -26 -45 -4
-14 -13 -32 -20 -40 -7 -8 -28 -44 -46 -80 -18 -36 -51 -83 -73 -106 -53 -53
-69 -74 -62 -81 6 -6 -29 -70 -76 -140 -15 -23 -28 -48 -28 -56 0 -8 -18 -36
-40 -63 -21 -26 -42 -60 -45 -75 -4 -15 -21 -47 -40 -70 -18 -23 -39 -60 -46
-83 -7 -22 -20 -50 -30 -61 -18 -20 -59 -108 -59 -126 0 -6 -9 -19 -20 -31
-20 -22 -60 -117 -60 -143 0 -8 -4 -15 -8 -15 -15 0 -51 -75 -63 -128 -6 -29
-14 -52 -17 -52 -12 0 -49 -82 -61 -133 -7 -27 -25 -72 -41 -100 -15 -29 -32
-74 -35 -102 -4 -27 -22 -79 -40 -115 -20 -40 -36 -93 -43 -137 -5 -39 -23
-100 -40 -135 -20 -42 -33 -92 -41 -152 -6 -49 -15 -94 -20 -100 -19 -23 -51
-156 -61 -249 -5 -54 -18 -126 -29 -160 -33 -110 -40 -159 -51 -342 -6 -99
-12 -189 -15 -201 -26 -119 -40 -331 -40 -611 0 -138 -4 -229 -9 -225 -6 3 -6
-3 -1 -14 4 -10 11 -66 16 -124 4 -58 12 -130 18 -160 5 -30 12 -68 15 -85 3
-16 10 -104 16 -195 10 -157 39 -330 59 -354 6 -7 15 -63 21 -126 10 -102 39
-226 60 -255 4 -5 13 -50 19 -100 10 -80 44 -192 61 -205 4 -3 10 -28 14 -57
7 -59 40 -167 59 -198 8 -11 19 -47 26 -80 8 -33 26 -84 42 -114 16 -30 36
-79 43 -109 8 -29 25 -70 39 -90 13 -21 29 -59 37 -87 7 -27 28 -75 46 -105
18 -30 36 -68 40 -85 9 -38 44 -105 53 -105 5 0 13 -19 20 -42 13 -43 45 -102
67 -125 7 -7 16 -27 19 -45 4 -18 11 -35 15 -38 15 -10 70 -104 70 -119 0 -9
14 -30 30 -48 17 -18 30 -37 30 -43 0 -18 31 -73 61 -108 16 -18 29 -38 29
-44 0 -12 45 -82 67 -106 7 -7 13 -17 13 -22 0 -5 20 -32 45 -60 25 -28 45
-56 45 -62 0 -11 104 -156 125 -173 6 -5 24 -29 38 -52 15 -23 36 -47 47 -53
11 -6 23 -22 26 -35 3 -14 19 -36 34 -48 15 -13 33 -33 39 -45 13 -24 141
-172 206 -238 22 -22 107 -109 189 -193 81 -84 151 -149 155 -144 21 23 62
351 91 723 28 353 53 570 92 795 26 152 32 182 52 280 9 44 21 107 27 140 22
120 29 162 45 240 9 44 20 98 24 120 10 48 54 210 100 370 5 17 12 41 15 55
15 55 104 348 114 375 5 11 18 52 29 90 67 217 334 1008 355 1050 14 28 50
113 82 190 96 235 196 467 227 528 16 32 42 94 58 137 16 43 47 115 70 160 23
45 39 87 37 93 -2 7 20 50 48 97 29 47 73 123 97 170 25 47 64 121 88 165 23
44 69 130 100 190 31 61 85 157 119 213 33 57 61 105 61 107 0 2 23 42 50 90
28 48 50 89 50 92 0 3 8 17 19 31 10 15 41 70 68 122 27 52 59 112 71 133 12
20 32 54 43 75 12 20 30 49 40 64 11 14 19 31 19 36 0 6 4 12 8 14 8 3 53 77
97 156 11 21 28 46 38 56 9 11 17 26 17 33 0 7 4 13 8 13 5 0 15 12 23 28 8
15 17 32 22 37 21 29 127 195 127 200 0 3 31 52 68 108 63 95 122 204 122 227
0 6 11 16 25 22 23 10 29 22 28 56 -1 6 3 12 8 12 5 0 9 -6 9 -14 0 -25 30
-26 67 0 24 16 46 23 64 20 20 -3 34 3 50 20 15 16 26 21 34 14 7 -5 14 -7 17
-4 3 3 12 -9 19 -26 8 -16 21 -33 30 -35 9 -3 29 -31 45 -63 15 -31 34 -63 41
-70 7 -7 13 -20 13 -28 0 -8 4 -14 9 -14 21 0 -4 -55 -46 -99 -18 -19 -33 -39
-33 -43 0 -4 -10 -17 -23 -30 -12 -13 -38 -43 -57 -68 -19 -25 -43 -54 -52
-64 -10 -11 -18 -26 -18 -33 0 -7 -4 -13 -10 -13 -5 0 -10 -6 -10 -12 0 -7
-11 -26 -25 -42 -14 -16 -25 -33 -25 -37 0 -4 -6 -14 -12 -21 -7 -8 -19 -25
-27 -38 -8 -14 -32 -54 -54 -89 -21 -35 -48 -80 -60 -100 -31 -54 -356 -704
-401 -801 -21 -47 -51 -113 -67 -147 -16 -34 -29 -64 -29 -68 0 -3 -18 -43
-40 -90 -22 -47 -40 -89 -40 -95 0 -6 -4 -18 -9 -28 -17 -32 -51 -125 -51
-138 0 -8 -4 -14 -8 -14 -4 0 -14 -21 -21 -47 -8 -27 -18 -55 -22 -63 -11 -24
-25 -61 -49 -125 -12 -33 -27 -71 -32 -85 -14 -33 -22 -54 -48 -125 -12 -33
-31 -81 -41 -107 -10 -26 -19 -54 -19 -62 0 -9 -4 -24 -9 -34 -5 -9 -32 -91
-61 -182 -29 -91 -56 -176 -60 -190 -7 -23 -36 -119 -89 -295 -12 -39 -21 -76
-21 -83 0 -7 -4 -20 -9 -30 -11 -21 -53 -158 -81 -267 -12 -44 -32 -120 -45
-170 -70 -267 -86 -333 -110 -451 -15 -71 -31 -151 -35 -179 -5 -27 -14 -72
-20 -100 -6 -27 -15 -75 -21 -105 -5 -30 -13 -77 -19 -105 -5 -27 -14 -75 -20
-105 -5 -30 -15 -77 -21 -105 -5 -27 -14 -76 -20 -107 -21 -133 -30 -186 -39
-248 -5 -36 -15 -90 -21 -120 -6 -30 -15 -83 -20 -117 -28 -189 -36 -240 -59
-368 -10 -61 -13 -85 -49 -410 -11 -99 -26 -234 -35 -300 -8 -66 -19 -169 -26
-230 -6 -60 -15 -146 -20 -190 -31 -257 -50 -431 -55 -515 -3 -52 -14 -239
-25 -415 -11 -176 -24 -385 -29 -465 -15 -216 -19 -412 -11 -535 10 -168 33
-206 252 -424 181 -181 235 -226 358 -303 41 -26 82 -55 91 -66 12 -14 40 -22
100 -31 46 -6 119 -16 161 -23 60 -9 92 -9 146 1 63 11 159 40 138 41 -5 0 11
14 36 30 25 17 73 61 107 98 161 177 189 205 230 233 47 31 88 37 124 17 28
-14 137 -126 137 -140 0 -5 10 -24 23 -41 12 -17 27 -44 32 -59 11 -31 92
-141 147 -201 21 -22 38 -48 38 -59 0 -10 5 -18 10 -18 21 0 5 -113 -47 -315
-33 -132 -42 -195 -43 -301 0 -99 2 -115 23 -145 27 -40 75 -57 162 -58 100
-2 238 -21 262 -37 13 -8 23 -21 23 -29 0 -25 37 -17 44 9 3 14 24 35 50 50
30 18 48 36 55 58 22 69 33 190 34 391 l2 209 33 29 c17 16 32 33 32 37 0 5
21 -1 48 -14 26 -12 72 -25 102 -28 38 -4 47 -3 30 3 -15 6 12 6 70 3 52 -4
327 -7 610 -7 474 1 526 3 650 22 152 24 188 32 245 58 22 10 44 17 50 16 5
-2 7 1 3 5 -8 8 13 29 67 65 19 13 35 28 35 32 0 5 4 6 9 3 5 -3 7 -15 4 -25
-3 -13 2 -21 16 -26 17 -5 21 -15 21 -46 0 -22 -5 -49 -11 -60 -17 -32 -49
-331 -50 -461 0 -126 7 -189 25 -200 21 -14 219 -8 265 8 51 17 120 11 166
-15 123 -70 439 -79 1044 -31 132 11 161 22 161 64 0 27 -85 109 -158 153 -29
18 -58 33 -63 33 -5 0 -9 4 -9 8 0 5 -33 19 -72 32 -40 13 -89 32 -108 42 -19
9 -81 27 -137 38 -140 28 -221 71 -318 170 -41 43 -75 80 -75 84 0 3 -18 33
-40 65 -22 32 -40 62 -40 66 0 4 -17 44 -38 89 -21 44 -45 106 -52 136 -7 30
-18 61 -24 69 -6 8 -11 50 -11 95 0 71 3 87 29 131 46 78 90 130 228 268 108
107 141 133 207 166 81 40 123 55 177 65 27 4 38 -1 74 -37 23 -23 53 -63 66
-89 13 -26 37 -55 54 -64 16 -10 30 -22 30 -26 0 -4 18 -11 40 -14 25 -4 45
-14 51 -25 8 -15 21 -19 62 -19 29 0 62 6 73 14 11 8 55 19 97 25 43 6 90 17
105 24 15 8 50 20 77 27 28 7 64 21 81 32 18 10 62 29 100 43 37 13 70 29 73
33 8 13 107 62 124 62 8 0 22 9 32 20 10 11 38 30 64 43 70 36 163 93 196 120
17 13 53 34 82 47 29 13 50 26 48 30 -3 4 3 14 12 21 14 12 16 12 8 -1 -8 -13
-6 -13 8 -1 9 7 15 16 13 20 -3 4 5 8 16 8 11 1 28 9 37 17 10 9 21 13 25 9 4
-4 4 0 1 9 -4 9 0 18 10 22 11 4 14 2 9 -7 -4 -6 15 9 42 34 27 26 59 50 72
54 40 12 47 45 23 110 -12 31 -29 71 -38 88 -17 33 -74 194 -173 487 -33 96
-138 407 -233 690 -96 283 -209 614 -251 735 -43 121 -91 263 -108 315 -16 52
-52 160 -79 240 -28 80 -77 226 -109 325 -33 99 -64 194 -70 210 -6 17 -25 73
-42 125 -16 52 -57 174 -90 270 -32 96 -86 258 -120 360 -33 102 -82 250 -108
330 -26 80 -85 260 -130 400 -45 140 -109 334 -141 430 -33 96 -75 222 -94
280 -19 58 -48 143 -65 190 -17 47 -89 258 -160 470 -71 212 -148 437 -170
500 -56 157 -59 165 -195 595 -105 334 -276 849 -310 935 -37 95 -65 176 -70
203 -2 9 -7 22 -10 27 -3 6 -1 10 5 10 6 0 10 12 8 28 -2 19 -8 26 -20 24 -12
-2 -18 8 -23 38 -4 23 -4 44 -1 47 3 4 6 -1 6 -11 0 -9 5 -14 10 -11 6 3 10
17 10 30 0 17 5 23 18 20 15 -2 17 5 17 58 -1 35 -5 62 -12 64 -6 2 -9 13 -6
23 6 22 19 26 25 8 4 -10 68 92 68 108 0 3 -7 3 -16 0 -14 -5 -15 -4 -4 9 7 9
10 18 6 22 -19 19 -125 -202 -127 -266 l-2 -36 -6 35 c-3 19 -34 93 -69 163
-70 144 -101 228 -137 379 -14 57 -41 163 -60 237 -19 73 -35 155 -35 180 l0
48 -52 -4 c-71 -6 -125 15 -163 61 -27 34 -30 45 -30 107 l0 68 50 51 c45 46
53 50 97 50 42 0 52 -5 95 -45 53 -51 68 -55 77 -22 3 12 41 60 86 105 44 46
80 89 80 97 0 8 9 19 20 25 11 6 20 17 20 25 0 7 3 15 8 17 15 6 71 87 106
153 6 11 23 36 38 56 15 19 35 53 44 75 9 21 24 48 34 59 18 20 168 310 204
395 11 25 29 68 41 95 12 28 27 70 34 95 8 25 22 63 32 85 27 61 46 106 62
150 8 22 25 65 37 95 12 30 27 73 32 95 6 22 15 44 19 50 5 5 9 17 9 27 0 11
11 30 25 44 14 14 28 39 32 55 3 16 9 29 13 29 5 0 14 16 20 36 11 32 34 78
85 167 22 39 16 50 -18 32 -27 -14 -33 -13 -80 9 -68 30 -108 42 -191 56 -38
6 -82 18 -97 25 -53 28 -115 44 -209 55 -52 7 -99 16 -105 20 -21 17 -121 40
-173 40 -70 0 -174 -46 -166 -72 3 -10 1 -18 -5 -18 -6 0 -10 5 -9 12 2 7 -1
13 -7 13 -26 3 -54 17 -52 28 1 6 -2 12 -8 12 -31 4 -66 26 -59 37 4 7 3 10
-1 5 -5 -4 -19 3 -32 15 -13 12 -32 23 -42 25 -19 3 -54 16 -81 31 -47 27 -84
42 -98 42 -9 0 -31 9 -49 20 -39 23 -175 70 -185 63 -19 -11 -5 -23 26 -23 41
0 88 -16 202 -70 125 -59 157 -76 259 -139 50 -31 104 -63 120 -71 58 -29 59
-36 7 -69 -27 -17 -95 -45 -152 -62 -57 -17 -134 -45 -169 -62 -70 -33 -114
-37 -216 -18 -27 6 -81 13 -119 16 l-68 7 -77 -79 c-42 -43 -83 -92 -90 -108
-8 -17 -29 -46 -46 -65 -53 -59 -63 -81 -52 -113 8 -24 5 -34 -12 -58 -11 -15
-21 -35 -21 -43 0 -8 -4 -18 -10 -21 -5 -3 -10 -21 -10 -39 0 -31 3 -34 43
-45 121 -33 229 -39 333 -20 76 14 196 60 257 99 54 34 84 37 128 14 17 -8 61
-18 97 -20 66 -6 100 2 209 47 18 7 35 10 39 6 7 -6 -37 -249 -62 -344 -34
-127 -47 -168 -69 -217 -31 -65 -78 -151 -95 -171 -8 -9 -32 -53 -54 -98 -30
-60 -49 -86 -71 -96 -19 -9 -80 -16 -173 -19 -140 -5 -143 -5 -138 -26 4 -12
15 -58 26 -103 11 -45 33 -108 49 -140 55 -107 56 -104 -51 -141 -173 -58
-339 -76 -448 -47 -70 18 -231 100 -276 140 l-34 30 16 85 c19 104 13 237 -15
312 -54 146 -99 234 -149 287 -30 32 -151 201 -187 261 -22 36 -44 72 -51 80
-22 27 -93 175 -123 256 -94 256 -98 477 -12 743 58 178 190 361 345 477 123
93 147 124 97 124 -9 0 -23 6 -29 12 -10 10 -15 10 -22 -1 -6 -11 -18 -6 -56
27 -26 23 -51 42 -55 42 -5 0 -38 14 -72 30 -58 27 -73 30 -158 29 -52 0 -116
-6 -144 -13z m1906 -1196 c15 -9 19 -22 19 -64 l0 -54 -49 -21 c-49 -21 -158
-29 -195 -15 -30 11 -18 53 28 99 58 58 145 82 197 55z m-550 -103 c46 -31 82
-86 68 -103 -16 -19 -128 -54 -173 -54 -95 1 -196 47 -196 89 0 10 17 35 37
55 l37 36 97 0 c83 0 100 -3 130 -23z m668 -182 c1 -16 -1 -17 -9 -5 -5 8 -9
29 -9 45 1 29 1 29 9 5 4 -14 8 -34 9 -45z m-3786 -741 c11 -11 -82 -124 -102
-124 -13 0 -28 16 -49 53 -27 47 -27 51 1 65 24 11 140 16 150 6z m166 -23
c16 -10 -8 -44 -114 -156 -31 -33 -65 -79 -76 -102 -10 -23 -24 -45 -29 -48
-6 -4 -7 -12 -4 -18 4 -7 3 -8 -1 -4 -5 4 -10 13 -11 20 -2 7 -7 26 -12 43 -9
28 -7 33 23 57 18 14 35 39 38 55 10 50 49 103 96 133 47 30 67 35 90 20z
m-696 -37 c59 -2 107 -7 108 -11 0 -5 -2 -23 -6 -41 -14 -74 -102 -81 -223
-19 -39 21 -84 37 -101 37 -16 0 -33 5 -36 10 -3 6 4 10 17 10 13 0 41 7 63
15 22 8 47 12 55 8 8 -3 63 -7 123 -9z m-413 -140 c18 -47 12 -108 -12 -131
-35 -31 -63 -43 -102 -43 -44 0 -46 14 -6 62 16 20 35 59 42 87 10 47 14 51
40 51 21 0 31 -6 38 -26z m1204 -57 c15 -42 -8 -133 -44 -178 -32 -40 -49 -99
-50 -167 0 -40 -2 -43 -22 -36 -86 26 -87 132 -2 272 19 31 34 61 34 65 0 5 7
25 16 44 21 42 54 42 68 0z m-586 -147 c23 -10 42 -26 42 -34 0 -8 8 -17 18
-19 9 -3 -12 -5 -49 -6 -96 -2 -145 29 -107 67 17 17 46 15 96 -8z m1257 -370
c3 -5 1 -10 -4 -10 -6 0 -11 5 -11 10 0 6 2 10 4 10 3 0 8 -4 11 -10z m-505
-54 c0 -2 -8 -10 -17 -17 -16 -13 -17 -12 -4 4 13 16 21 21 21 13z m225 -134
c-3 -3 0 -11 6 -19 6 -7 8 -13 4 -13 -5 0 0 -10 11 -22 l18 -23 -22 20 c-12
11 -23 30 -25 42 -1 11 -9 29 -17 40 -13 17 -13 16 8 -1 12 -11 20 -21 17 -24z
m-1178 -80 c19 -41 53 -88 85 -121 l53 -53 -48 32 c-58 39 -135 145 -136 188
-2 38 13 24 46 -46z m754 -45 l-23 -22 17 28 c10 15 20 25 23 22 3 -3 -5 -16
-17 -28z m-39 -60 c-12 -13 -22 -28 -22 -34 0 -5 -16 -24 -35 -42 -49 -44 -44
-23 8 34 23 26 46 54 50 62 5 8 11 12 15 9 3 -3 -4 -16 -16 -29z m-102 -117
c0 -5 -5 -10 -11 -10 -5 0 -7 5 -4 10 3 6 8 10 11 10 2 0 4 -4 4 -10z m3015
-21 c103 -26 151 -56 241 -152 97 -104 109 -123 119 -190 14 -92 -25 -177
-127 -272 -151 -143 -302 -201 -523 -199 -108 1 -130 4 -215 33 -110 37 -179
85 -246 169 -55 70 -114 172 -114 198 0 27 78 151 136 219 105 121 297 204
504 218 51 3 167 -9 225 -24z m-5676 -201 c0 -28 -2 -30 -9 -13 -12 28 -12 45
0 45 6 0 10 -15 9 -32z m3184 -188 c-3 -10 -12 -25 -19 -31 -12 -10 -13 -8 -8
7 7 19 24 44 29 44 2 0 1 -9 -2 -20z m855 -291 c-3 -8 -7 -3 -11 10 -4 17 -3
21 5 13 5 -5 8 -16 6 -23z m-1165 -93 c-10 -14 -29 -29 -43 -35 -19 -8 -15 -2
15 24 48 41 52 43 28 11z m-2917 -31 c-6 -32 -60 -105 -79 -105 -4 0 3 17 16
38 12 20 31 54 42 74 23 44 30 42 21 -7z m2814 -49 c0 -2 -8 -10 -17 -17 -16
-13 -17 -12 -4 4 13 16 21 21 21 13z m3756 -131 c-1 -8 -5 -17 -8 -21 -5 -4
-4 16 1 34 3 9 9 -1 7 -13z m-3936 -25 c-6 -10 -22 -27 -36 -37 -15 -10 -47
-37 -73 -60 -25 -24 -50 -43 -56 -43 -16 0 154 158 173 160 1 0 -2 -9 -8 -20z
m-2810 -40 c-12 -16 -26 -30 -32 -30 -11 0 6 26 31 48 24 19 24 14 1 -18z
m-62 -95 c-13 -24 -26 -45 -30 -45 -12 0 -9 17 5 32 8 7 19 23 26 36 22 42 21
22 -1 -23z m2676 -52 c-24 -38 -62 -78 -68 -72 -7 6 64 99 76 99 6 0 2 -12 -8
-27z m-2721 -80 c-3 -52 1 -94 11 -128 20 -65 12 -70 -16 -9 -30 68 -36 149
-13 174 10 11 15 20 11 20 -4 0 -4 5 -1 10 11 18 12 11 8 -67z m2391 -258 c-4
-8 -11 -15 -16 -15 -6 0 -5 6 2 15 7 8 14 15 16 15 2 0 1 -7 -2 -15z m-60 -60
c-4 -8 -11 -15 -16 -15 -6 0 -5 6 2 15 7 8 14 15 16 15 2 0 1 -7 -2 -15z
m-110 -180 c-20 -55 -38 -129 -42 -165 -4 -36 -11 -64 -17 -62 -20 5 -8 116
21 198 25 69 62 139 71 131 1 -1 -14 -47 -33 -102z m-217 -51 c29 -3 57 -12
62 -18 7 -9 21 -126 14 -126 -1 0 -11 20 -22 44 -25 57 -53 75 -138 88 -155
23 -85 34 84 12z m-1810 -116 c-3 -7 -5 -2 -5 12 0 14 2 19 5 13 2 -7 2 -19 0
-25z m10 -60 c-3 -7 -5 -2 -5 12 0 14 2 19 5 13 2 -7 2 -19 0 -25z m166 7 c20
-14 37 -28 37 -31 0 -3 -4 -3 -9 1 -5 3 -12 -4 -16 -15 -4 -13 -15 -20 -30
-20 -13 0 -29 -8 -34 -17 -8 -14 -10 -8 -11 29 0 48 7 78 19 78 3 0 23 -11 44
-25z m749 -102 c-31 -60 -19 -216 22 -308 41 -88 71 -107 170 -109 84 -1 69
-18 -18 -18 -90 0 -120 19 -165 107 -32 64 -35 78 -39 176 -3 84 -1 112 12
137 9 18 19 32 22 32 2 0 1 -8 -4 -17z m3569 -80 c-12 -20 -14 -14 -5 12 4 9
9 14 11 11 3 -2 0 -13 -6 -23z m-84 -225 c-3 -8 -6 -5 -6 6 -1 11 2 17 5 13 3
-3 4 -12 1 -19z m-3970 -50 c-3 -7 -5 -2 -5 12 0 14 2 19 5 13 2 -7 2 -19 0
-25z m3894 -125 c-8 -15 -10 -15 -11 -2 0 17 10 32 18 25 2 -3 -1 -13 -7 -23z
m-2837 -157 c57 -56 110 -115 119 -132 24 -46 57 -137 57 -155 0 -9 6 -29 14
-45 8 -16 17 -42 21 -59 5 -27 3 -25 -14 10 -11 22 -39 90 -62 150 -38 102
-46 115 -108 175 -37 36 -86 80 -109 98 -48 38 -60 72 -41 110 l14 27 3 -39
c3 -35 15 -51 106 -140z m2607 -263 c-17 -32 -40 -58 -41 -47 0 11 38 64 46
64 3 0 0 -8 -5 -17z m69 -205 c106 -87 469 -274 700 -361 422 -157 789 -188
1085 -91 94 31 131 49 204 98 29 20 57 36 61 36 4 0 11 -11 14 -25 4 -14 56
-157 117 -318 117 -309 165 -440 204 -549 13 -37 35 -93 48 -125 14 -32 37
-94 51 -138 21 -67 61 -182 125 -360 6 -16 30 -93 55 -170 24 -77 59 -185 76
-240 18 -55 45 -147 61 -205 15 -58 49 -184 74 -280 26 -96 54 -209 62 -250
15 -78 39 -163 68 -240 14 -36 19 -108 26 -369 5 -178 6 -327 2 -331 -4 -3
-42 -17 -83 -29 -41 -13 -95 -34 -120 -46 -25 -12 -115 -48 -200 -79 -134 -50
-194 -75 -354 -152 -36 -17 -55 -18 -61 -1 -3 6 -18 91 -35 187 -17 96 -39
220 -49 274 -21 108 3 56 -378 821 -216 433 -362 740 -443 930 -103 246 -152
356 -172 390 -38 65 -61 110 -74 147 l-14 40 37 31 c148 126 267 267 225 267
-5 0 -42 -33 -83 -72 -127 -125 -192 -180 -225 -194 -37 -16 -39 -23 -54 -249
-6 -82 -19 -197 -30 -255 -21 -116 -46 -318 -55 -450 -3 -47 -14 -125 -25
-175 -17 -85 -38 -231 -60 -430 -5 -49 -21 -160 -34 -245 -14 -85 -30 -204
-36 -265 -6 -60 -19 -150 -29 -200 -25 -120 -40 -230 -48 -344 l-6 -93 -41 7
c-23 3 -97 10 -166 15 -174 12 -609 60 -635 70 -19 7 -22 20 -34 171 -26 334
-90 844 -146 1164 -14 77 -29 183 -35 235 -6 52 -19 158 -30 236 -30 211 -40
395 -40 752 0 356 10 506 45 687 13 66 26 140 30 165 15 96 148 429 241 604
l56 106 41 -32 c23 -18 62 -49 87 -70z m-2183 -440 c-3 -8 -6 -5 -6 6 -1 11 2
17 5 13 3 -3 4 -12 1 -19z m1923 -3612 c0 -3 -4 -8 -10 -11 -5 -3 -10 -1 -10
4 0 6 5 11 10 11 6 0 10 -2 10 -4z m2432 -248 c-5 -7 -12 -22 -15 -33 -3 -13
-5 -9 -6 13 -1 23 3 32 15 32 12 0 14 -3 6 -12z m-2425 -1160 c-2 -24 -4 -7
-4 37 0 44 2 63 4 43 2 -21 2 -57 0 -80z"/>
<path d="M8504 14533 c2 -10 -1 -21 -7 -24 -11 -8 -18 -47 -24 -146 -2 -40 -9
-73 -15 -73 -6 0 -8 -7 -4 -15 3 -8 1 -15 -3 -15 -14 0 -53 -68 -49 -86 2 -14
10 -10 41 16 37 33 37 35 37 109 1 64 9 118 35 223 2 10 0 20 -5 23 -4 3 -7
-3 -6 -12z"/>
<path d="M10080 14190 c8 -5 24 -9 35 -9 l20 0 -20 9 c-11 5 -27 9 -35 9 -13
1 -13 0 0 -9z"/>
<path d="M8385 14140 c3 -5 8 -10 11 -10 2 0 4 5 4 10 0 6 -5 10 -11 10 -5 0
-7 -4 -4 -10z"/>
<path d="M10629 13928 c-6 -24 -23 -70 -39 -103 -15 -33 -38 -94 -50 -135 -13
-41 -31 -93 -41 -115 -10 -22 -32 -80 -49 -130 -18 -49 -49 -137 -70 -195 -21
-58 -55 -149 -74 -203 -19 -53 -40 -107 -47 -118 -15 -30 -87 -232 -109 -309
-10 -36 -33 -96 -50 -135 -83 -180 -98 -213 -109 -250 -7 -22 -25 -69 -41
-105 -57 -130 -102 -246 -117 -300 -8 -30 -28 -83 -44 -116 -16 -34 -29 -65
-29 -70 0 -8 -90 -208 -122 -269 -86 -166 -117 -222 -137 -247 -7 -9 -11 -23
-8 -30 4 -8 6 -7 6 5 2 36 39 16 92 -49 30 -36 85 -100 124 -143 42 -46 51
-59 23 -32 -59 55 -74 49 -19 -8 22 -22 37 -41 34 -41 -3 0 5 -10 18 -23 44
-43 57 -65 75 -124 10 -32 26 -73 36 -91 10 -18 18 -37 18 -41 0 -5 15 -42 34
-83 45 -97 86 -203 86 -221 0 -21 75 -240 93 -273 18 -33 167 -344 167 -349 0
-2 20 -46 45 -99 25 -53 45 -98 45 -100 0 -2 32 -69 70 -149 39 -80 70 -149
70 -152 0 -4 14 -37 31 -73 17 -37 50 -112 74 -167 23 -55 72 -165 108 -245
36 -80 92 -206 125 -280 33 -74 75 -169 95 -210 19 -41 80 -183 136 -315 137
-321 190 -438 289 -640 94 -190 250 -511 275 -565 8 -19 25 -57 37 -85 24 -55
261 -675 397 -1040 133 -355 383 -1108 461 -1385 39 -138 104 -377 141 -515
16 -60 35 -123 41 -140 l12 -30 24 30 c32 38 178 198 222 242 17 18 32 38 32
44 0 6 18 27 40 46 22 20 40 42 40 48 0 7 11 23 24 36 12 13 45 51 72 84 26
33 54 66 61 73 7 7 13 17 13 21 0 5 16 26 35 47 19 21 35 44 35 51 0 7 20 35
45 63 25 28 45 54 45 59 0 4 11 21 25 37 14 16 35 49 46 72 12 24 32 54 44 67
13 12 35 44 48 71 14 27 35 59 46 71 12 12 21 31 21 41 0 11 17 41 39 68 21
27 43 66 49 86 5 20 24 54 40 75 16 21 36 56 43 78 8 22 16 42 19 45 20 18 49
70 55 100 4 19 22 58 40 85 18 28 36 66 40 85 4 19 22 58 40 85 18 28 37 69
41 90 6 34 38 106 63 140 4 6 13 37 20 69 8 33 25 83 40 110 15 28 33 83 40
121 8 39 21 81 31 95 24 36 37 76 50 155 7 39 23 95 37 125 16 34 31 94 40
160 8 58 18 114 23 125 32 77 50 161 60 279 5 62 13 123 19 137 30 71 51 244
61 494 5 143 12 316 16 385 6 128 -11 727 -26 900 -8 88 -28 228 -46 310 -10
44 -9 76 1 167 6 54 5 76 -5 88 -7 8 -19 39 -26 68 -7 28 -19 77 -28 107 -8
30 -22 91 -31 135 -9 44 -25 105 -36 135 -11 30 -30 100 -44 155 -14 55 -34
118 -44 140 -11 22 -25 60 -31 85 -6 25 -21 68 -32 95 -11 28 -31 82 -45 120
-13 39 -37 97 -53 130 -16 33 -36 83 -46 110 -9 28 -24 61 -33 75 -10 14 -28
54 -40 89 -13 36 -29 70 -36 77 -7 7 -25 43 -41 81 -15 37 -32 70 -36 73 -4 3
-26 43 -50 88 -88 170 -104 198 -131 240 -16 24 -31 51 -34 60 -3 9 -14 26
-23 37 -10 11 -30 42 -45 69 -15 28 -40 66 -56 85 -16 20 -29 41 -29 47 0 7
-15 30 -32 52 -18 22 -43 58 -56 79 -13 21 -36 53 -52 72 -17 18 -30 37 -30
42 0 4 -11 19 -24 32 -13 13 -36 41 -50 63 -54 81 -119 160 -323 389 -188 213
-247 273 -317 323 -32 23 -87 68 -121 100 -34 33 -77 70 -95 83 -19 13 -48 38
-65 54 -32 31 -119 108 -190 169 -22 19 -51 41 -65 48 -14 7 -30 20 -37 28 -6
9 -32 27 -57 40 -25 13 -46 27 -46 31 0 4 -21 23 -47 41 -27 18 -57 41 -68 51
-11 11 -38 28 -61 38 -22 10 -49 28 -60 40 -10 11 -37 30 -59 41 -22 12 -42
24 -45 28 -11 16 -84 60 -100 60 -9 0 -27 12 -41 26 -13 15 -44 36 -69 48 -25
11 -61 33 -80 47 -19 15 -47 29 -62 33 -15 3 -33 12 -40 19 -29 28 -77 57 -95
57 -11 0 -47 17 -79 38 -33 21 -74 41 -91 45 -18 3 -51 20 -74 37 -23 16 -61
35 -83 41 -24 6 -54 24 -73 45 -20 21 -41 34 -57 34 -21 0 -27 -7 -37 -42z
m1535 -1267 c-10 -10 -136 -61 -149 -61 -18 0 11 18 50 30 22 7 53 21 69 31
29 18 49 18 30 0z m-174 -71 c-8 -5 -19 -10 -25 -10 -5 0 -3 5 5 10 8 5 20 10
25 10 6 0 3 -5 -5 -10z m-257 -77 c-7 -2 -19 -2 -25 0 -7 3 -2 5 12 5 14 0 19
-2 13 -5z m-433 -14 c19 -7 62 -15 95 -18 53 -6 57 -8 32 -15 -30 -9 -153 16
-171 34 -13 13 1 13 44 -1z m-822 -282 c5 -27 -5 -47 -22 -41 -7 3 -16 19 -18
35 -4 26 -2 30 16 27 11 -2 22 -11 24 -21z m-183 -139 c13 -41 13 -48 4 -48
-5 0 -9 -4 -9 -10 0 -5 8 -7 18 -4 9 3 4 -2 -11 -11 -23 -13 -31 -14 -44 -4
-8 7 -25 18 -36 24 -34 17 -33 42 2 50 17 4 33 11 36 16 11 17 33 9 40 -13z
m68 -16 c-21 -14 -39 -25 -40 -24 -7 5 3 17 11 14 5 -2 3 4 -4 13 -18 22 -1
33 41 27 l30 -4 -38 -26z m112 -12 c3 -5 1 -10 -4 -10 -6 0 -11 5 -11 10 0 6
2 10 4 10 3 0 8 -4 11 -10z m-87 -412 c-23 -68 -99 -148 -138 -147 -13 1 -13
1 -1 6 30 12 84 70 113 121 34 60 42 66 26 20z m-342 -740 c10 -12 13 -18 7
-14 -8 4 -13 1 -13 -8 0 -19 -13 -20 -39 -4 -15 9 -17 16 -10 30 13 24 32 23
55 -4z m-79 -70 c-3 -8 -6 -5 -6 6 -1 11 2 17 5 13 3 -3 4 -12 1 -19z m205
-65 c1 -11 38 -36 45 -30 8 9 107 -73 115 -94 6 -15 2 -22 -18 -29 -43 -17
-57 -12 -109 39 -28 27 -53 47 -57 45 -4 -2 -10 0 -13 6 -4 6 -3 10 2 9 20 -3
27 2 13 11 -12 8 -12 11 3 28 9 10 15 22 12 25 -3 4 -2 5 1 3 3 -2 6 -8 6 -13z
m556 -267 l41 -44 -22 -19 c-66 -59 -102 -68 -111 -25 -11 49 -9 101 4 117 21
25 45 17 88 -29z m590 -244 c2 -12 -1 -22 -7 -22 -6 0 -11 4 -11 9 0 5 -3 17
-7 27 -4 12 -2 15 8 12 8 -2 15 -14 17 -26z m-800 -288 c24 -13 13 -14 -123
-13 -82 1 -172 6 -200 13 -45 11 -34 12 123 13 132 1 178 -2 200 -13z m629
-256 c-3 -7 -5 -2 -5 12 0 14 2 19 5 13 2 -7 2 -19 0 -25z m1010 12 c28 -10
102 -24 165 -31 62 -6 116 -13 121 -16 11 -7 9 -101 -3 -108 -6 -4 -8 -11 -5
-16 10 -15 -5 -11 -33 10 -37 26 -219 116 -265 130 -20 7 -42 21 -47 32 -14
25 0 25 67 -1z m-847 -425 c14 -19 14 -19 -2 -6 -10 7 -18 18 -18 24 0 6 1 8
3 6 1 -2 9 -13 17 -24z m3131 -96 c-18 -30 -49 -52 -154 -109 -77 -42 -47 -10
51 55 56 37 103 74 107 83 3 8 8 12 11 10 3 -3 -4 -21 -15 -39z m-3056 -19
c10 -11 16 -20 13 -20 -3 0 -13 9 -23 20 -10 11 -16 20 -13 20 3 0 13 -9 23
-20z m2109 -51 c35 -71 17 -60 -22 12 -17 34 -26 56 -18 49 8 -6 26 -34 40
-61z m-904 47 c0 -2 -8 -10 -17 -17 -16 -13 -17 -12 -4 4 13 16 21 21 21 13z
m-1125 -96 c27 -27 47 -50 44 -50 -3 0 -27 23 -54 50 -27 28 -47 50 -44 50 3
0 27 -22 54 -50z m1045 36 c0 -2 -8 -10 -17 -17 -16 -13 -17 -12 -4 4 13 16
21 21 21 13z m1688 -88 c-3 -7 -13 -15 -24 -17 -16 -3 -17 -1 -5 13 16 19 34
21 29 4z m-2502 -6 c-3 -5 2 -21 10 -36 7 -16 14 -32 14 -37 0 -8 48 -118 74
-169 7 -14 26 -50 41 -80 15 -30 45 -76 67 -102 21 -27 36 -48 31 -48 -25 0
-118 67 -158 113 -59 68 -135 170 -135 180 0 9 -36 62 -65 95 -11 13 -19 25
-17 28 9 15 41 41 53 42 11 1 68 15 87 21 2 1 1 -3 -2 -7z m2349 -129 c-7 -16
-21 -47 -30 -70 -15 -37 -20 -40 -36 -30 -18 11 -18 12 1 44 21 36 61 81 72
82 4 1 1 -11 -7 -26z m15 -283 c0 -25 -3 -55 -6 -67 -12 -46 -19 -21 -16 59 4
86 22 93 22 8z m-1834 -205 c-8 -75 -34 -141 -66 -170 -13 -11 -21 -15 -18
-10 2 6 14 31 26 57 12 26 27 73 33 105 14 72 17 83 25 83 4 0 4 -29 0 -65z
m-118 -235 c-7 -11 -17 -20 -22 -20 -5 0 -1 9 9 20 10 11 20 20 22 20 2 0 -2
-9 -9 -20z m-169 -166 c-13 -14 -37 -35 -54 -46 -19 -13 -12 -3 18 26 52 49
76 63 36 20z m-240 -621 c0 -208 -5 -387 -9 -398 -5 -11 -9 134 -9 340 -1 320
3 435 15 435 2 0 4 -170 3 -377z"/>
<path d="M10010 10902 c0 -5 7 -9 15 -9 8 0 12 4 9 9 -3 4 -9 8 -15 8 -5 0 -9
-4 -9 -8z"/>
<path d="M8029 13503 c-35 -9 9 -86 54 -96 12 -2 31 -8 42 -12 20 -8 20 -8 0
16 -12 13 -28 41 -38 62 -16 36 -23 40 -58 30z"/>
<path d="M7913 13450 c3 -25 8 -58 11 -75 3 -16 8 -46 11 -65 2 -19 9 -55 15
-80 6 -25 15 -79 20 -120 13 -105 20 -142 30 -165 5 -11 11 -27 14 -35 10 -26
-35 249 -54 330 -5 25 -17 90 -25 144 -15 99 -33 152 -22 66z"/>
<path d="M8926 13119 c-49 -32 -105 -62 -124 -65 -46 -9 -107 11 -165 53 -26
20 -50 33 -53 30 -11 -11 25 -74 57 -102 46 -38 127 -75 167 -75 42 0 78 19
118 62 46 49 117 158 102 157 -7 0 -53 -27 -102 -60z"/>
<path d="M7756 12972 c5 -5 52 -41 104 -80 52 -39 111 -85 130 -101 44 -38 75
-45 124 -27 l39 13 -36 7 c-19 4 -40 13 -46 20 -7 8 -36 24 -66 36 -30 12 -55
27 -55 32 0 6 -6 8 -14 5 -8 -3 -20 1 -26 9 -7 8 -18 14 -25 14 -6 0 -20 9
-30 20 -9 10 -35 28 -57 40 -40 21 -59 26 -42 12z"/>
<path d="M8225 12739 c94 -41 115 -49 115 -44 0 8 -156 75 -174 75 -6 -1 21
-14 59 -31z"/>
<path d="M8408 12663 c7 -3 16 -2 19 1 4 3 -2 6 -13 5 -11 0 -14 -3 -6 -6z"/>
<path d="M4966 8350 c-3 -8 -17 -51 -32 -95 -15 -44 -30 -82 -34 -85 -4 -3
-15 -21 -25 -40 -18 -34 -18 -35 1 -20 33 26 39 34 42 60 1 14 12 33 23 42 12
10 19 24 16 32 -3 8 0 17 7 19 17 7 28 47 13 47 -8 0 -7 4 2 9 10 6 11 13 3
27 -9 16 -12 16 -16 4z"/>
<path d="M4846 8075 c-3 -9 0 -15 9 -15 9 0 12 6 9 15 -4 8 -7 15 -9 15 -2 0
-5 -7 -9 -15z"/>
<path d="M11140 7505 c7 -9 15 -13 17 -11 7 7 -7 26 -19 26 -6 0 -6 -6 2 -15z"/>
<path d="M11194 7408 c-4 -7 -4 -10 1 -6 4 4 14 0 21 -10 12 -15 12 -15 7 6
-6 24 -18 29 -29 10z"/>
<path d="M11206 7349 c0 -17 7 -38 15 -47 8 -10 16 -26 17 -37 2 -11 12 -28
23 -38 10 -10 20 -23 21 -30 0 -7 2 -16 2 -22 1 -5 14 -23 29 -39 14 -16 24
-33 20 -39 -3 -5 -1 -7 5 -3 6 3 17 -1 26 -9 9 -9 17 -11 21 -5 3 6 -1 13 -10
16 -9 4 -14 13 -11 20 3 9 0 11 -11 7 -13 -5 -15 -1 -9 20 4 16 1 31 -9 40 -8
8 -11 18 -7 21 3 4 -2 4 -11 0 -15 -5 -17 -2 -12 18 4 17 0 29 -14 42 -12 11
-21 27 -21 36 0 18 -39 73 -40 56 0 -6 -6 -2 -12 7 -11 15 -13 14 -12 -14z"/>
<path d="M11390 7016 c0 -7 7 -19 15 -26 12 -10 15 -9 15 8 0 11 -7 22 -15 26
-9 3 -15 0 -15 -8z"/>
<path d="M11420 6950 c0 -5 9 -14 20 -20 23 -12 26 -5 6 16 -17 16 -26 18 -26
4z"/>
</g>
</svg>
