<?xml version="1.0" encoding="utf-8"?>
<svg width="263px" height="409px" viewBox="0 0 263 409" version="1.1" xmlns:xlink="http://www.w3.org/1999/xlink" xmlns="http://www.w3.org/2000/svg">
  <desc>Created with Lunacy</desc>
  <defs>
    <path d="M7.999 0L244.576 0Q244.773 0 244.969 0.00963514Q245.165 0.0192703 245.36 0.0385174Q245.556 0.0577644 245.75 0.0865771Q245.944 0.11539 246.137 0.153699Q246.329 0.192007 246.52 0.23972Q246.71 0.287433 246.898 0.344434Q247.086 0.401436 247.271 0.467589Q247.456 0.533742 247.637 0.608888Q247.819 0.684033 247.996 0.76799Q248.174 0.851946 248.347 0.944512Q248.52 1.03708 248.689 1.13803Q248.857 1.23898 249.02 1.34807Q249.184 1.45717 249.341 1.57414Q249.499 1.69112 249.651 1.81569Q249.803 1.94026 249.948 2.07213Q250.094 2.204 250.232 2.34285Q250.371 2.4817 250.503 2.6272Q250.635 2.7727 250.76 2.92449Q250.884 3.07628 251.001 3.234Q251.118 3.39172 251.227 3.55499Q251.336 3.71826 251.437 3.88669Q251.538 4.05512 251.631 4.2283Q251.723 4.40148 251.807 4.57899Q251.891 4.7565 251.966 4.93791Q252.041 5.11933 252.108 5.30422Q252.174 5.4891 252.231 5.67701Q252.288 5.86492 252.335 6.0554Q252.383 6.24588 252.422 6.43847Q252.46 6.63106 252.489 6.8253Q252.517 7.01954 252.537 7.21496Q252.556 7.41038 252.566 7.60651Q252.575 7.80264 252.575 7.999L252.575 392.001Q252.575 392.197 252.566 392.393Q252.556 392.59 252.537 392.785Q252.517 392.98 252.489 393.175Q252.46 393.369 252.422 393.562Q252.383 393.754 252.335 393.945Q252.288 394.135 252.231 394.323Q252.174 394.511 252.108 394.696Q252.042 394.881 251.966 395.062Q251.891 395.243 251.807 395.421Q251.723 395.599 251.631 395.772Q251.538 395.945 251.437 396.113Q251.336 396.282 251.227 396.445Q251.118 396.608 251.001 396.766Q250.884 396.924 250.76 397.075Q250.635 397.227 250.503 397.373Q250.371 397.518 250.232 397.657Q250.094 397.796 249.948 397.928Q249.803 398.06 249.651 398.184Q249.499 398.309 249.341 398.426Q249.184 398.543 249.02 398.652Q248.857 398.761 248.689 398.862Q248.52 398.963 248.347 399.055Q248.174 399.148 247.996 399.232Q247.819 399.316 247.637 399.391Q247.456 399.466 247.271 399.532Q247.086 399.599 246.898 399.656Q246.71 399.713 246.52 399.76Q246.329 399.808 246.137 399.846Q245.944 399.885 245.75 399.913Q245.556 399.942 245.36 399.961Q245.165 399.981 244.969 399.99Q244.773 400 244.576 400L7.999 400Q7.80264 400 7.60651 399.99Q7.41038 399.981 7.21496 399.961Q7.01954 399.942 6.8253 399.913Q6.63106 399.885 6.43847 399.846Q6.24588 399.808 6.0554 399.76Q5.86492 399.713 5.67701 399.656Q5.4891 399.599 5.30422 399.532Q5.11933 399.466 4.93791 399.391Q4.7565 399.316 4.57899 399.232Q4.40148 399.148 4.2283 399.055Q4.05512 398.963 3.88669 398.862Q3.71826 398.761 3.55499 398.652Q3.39172 398.543 3.234 398.426Q3.07628 398.309 2.92449 398.184Q2.7727 398.06 2.6272 397.928Q2.4817 397.796 2.34285 397.657Q2.204 397.518 2.07213 397.373Q1.94026 397.227 1.81569 397.075Q1.69112 396.924 1.57414 396.766Q1.45717 396.608 1.34807 396.445Q1.23898 396.282 1.13803 396.113Q1.03708 395.945 0.944512 395.772Q0.851946 395.599 0.76799 395.421Q0.684033 395.243 0.608888 395.062Q0.533742 394.881 0.467589 394.696Q0.401436 394.511 0.344434 394.323Q0.287433 394.135 0.23972 393.945Q0.192007 393.754 0.153699 393.561Q0.11539 393.369 0.0865771 393.175Q0.0577644 392.98 0.0385174 392.785Q0.0192703 392.59 0.00963514 392.393Q0 392.197 0 392.001L0 7.999Q0 7.80264 0.00963514 7.60651Q0.0192703 7.41038 0.0385174 7.21496Q0.0577644 7.01954 0.0865771 6.8253Q0.11539 6.63106 0.153699 6.43847Q0.192007 6.24588 0.23972 6.0554Q0.287433 5.86492 0.344434 5.67701Q0.401436 5.4891 0.467589 5.30422Q0.533742 5.11933 0.608888 4.93791Q0.684033 4.7565 0.76799 4.57899Q0.851946 4.40148 0.944512 4.2283Q1.03708 4.05512 1.13803 3.88669Q1.23898 3.71826 1.34807 3.55499Q1.45717 3.39172 1.57414 3.234Q1.69112 3.07628 1.81569 2.92449Q1.94026 2.7727 2.07213 2.6272Q2.204 2.4817 2.34285 2.34285Q2.4817 2.204 2.6272 2.07213Q2.7727 1.94026 2.92449 1.81569Q3.07628 1.69112 3.234 1.57414Q3.39172 1.45717 3.55499 1.34807Q3.71826 1.23898 3.88669 1.13803Q4.05512 1.03708 4.2283 0.944512Q4.40148 0.851946 4.57899 0.76799Q4.7565 0.684033 4.93791 0.608888Q5.11933 0.533742 5.30422 0.467589Q5.4891 0.401436 5.67701 0.344434Q5.86492 0.287433 6.0554 0.23972Q6.24588 0.192007 6.43847 0.153699Q6.63106 0.11539 6.8253 0.0865771Q7.01954 0.0577644 7.21496 0.0385174Q7.41038 0.0192703 7.60651 0.00963514Q7.80264 0 7.999 0Z" transform="translate(0.7132111 0)" id="path_1" />
  </defs>
  <g id="Card" transform="translate(4 4)">
    <g id="Card-Shades">
      <g id="Card-Border">
        <use xlink:href="#path_1" fill="none" stroke="#0ED5DF" stroke-width="8" />
        <use stroke="none" fill="#FCFAFA" xlink:href="#path_1" />
      </g>
      <g id="New-group" transform="translate(0 131.5)">
        <path d="M0.000731714 132.5C0.000731714 132.5 -1.46649 68.6073 127.002 68.8406C228.367 69.0247 248.526 26.0604 252.521 7.92375C253.471 3.60943 253.51 3.58126 253.52 7.99898L254.12 260.498Q254.121 260.694 254.111 260.89Q254.102 261.087 254.083 261.282Q254.065 261.478 254.036 261.672Q254.008 261.866 253.97 262.059Q253.932 262.252 253.885 262.442Q253.838 262.633 253.781 262.821Q253.724 263.009 253.659 263.194Q253.593 263.379 253.518 263.561Q253.443 263.743 253.36 263.921Q253.276 264.098 253.184 264.272Q253.092 264.445 252.991 264.614Q252.891 264.782 252.782 264.946Q252.673 265.11 252.557 265.268Q252.44 265.426 252.316 265.578Q252.191 265.73 252.06 265.876Q251.928 266.021 251.79 266.161Q251.651 266.3 251.506 266.432Q251.361 266.564 251.209 266.689Q251.057 266.814 250.9 266.932Q250.742 267.049 250.579 267.158Q250.416 267.268 250.248 267.369Q250.08 267.47 249.907 267.563Q249.734 267.656 249.556 267.741Q249.379 267.825 249.198 267.901Q249.016 267.976 248.831 268.043Q248.647 268.109 248.459 268.167Q248.271 268.224 248.081 268.272Q247.89 268.32 247.698 268.359Q247.505 268.398 247.311 268.427Q247.117 268.456 246.921 268.476Q246.726 268.495 246.529 268.505Q246.333 268.515 246.137 268.516L0.500732 269" id="Card-Wave" fill="#0ED5DF" stroke="none" />
      </g>
    </g>
  </g>
</svg>